<svg width="501" height="104" viewBox="0 0 501 104" fill="none" xmlns="http://www.w3.org/2000/svg">
<path d="M149.444 86.0713H138.664V19.1953H173.399C178.456 19.1953 182.832 19.9609 186.525 21.4912C190.218 23.0225 193.046 25.251 195.01 28.1787C196.972 31.1074 197.954 34.667 197.954 38.8594C197.954 42.5859 197.171 45.7803 195.608 48.4414C194.044 51.1035 191.781 53.1992 188.821 54.7295C185.859 56.2607 182.283 57.1592 178.091 57.4248V58.123C180.686 58.7891 182.698 59.8701 184.13 61.3672C185.56 62.8643 186.875 64.6777 188.072 66.8066L199.251 86.0713H186.875L176.194 67.6055C175.196 65.8086 174.114 64.3613 172.951 63.2637C171.786 62.166 170.338 61.3672 168.608 60.8682C166.877 60.3691 164.582 60.1191 161.721 60.1191H149.444V86.0713ZM149.444 28.877V51.835H173.3C177.757 51.835 181.118 50.9707 183.381 49.2393C185.643 47.5098 186.775 44.5479 186.775 40.3564C186.775 36.2979 185.643 33.3691 183.381 31.5723C181.118 29.7754 177.757 28.877 173.3 28.877H149.444Z" fill="white"/>
<path d="M228.696 87.0732C223.306 87.0732 218.58 86.0752 214.522 84.0791C210.462 82.083 207.318 79.1553 205.09 75.2949C202.859 71.4365 201.746 66.7783 201.746 61.3213C201.746 56.1309 202.859 51.6064 205.09 47.7461C207.318 43.8877 210.43 40.876 214.422 38.7129C218.415 36.5518 223.106 35.4688 228.496 35.4688C233.62 35.4688 238.128 36.3848 242.021 38.2139C245.914 40.0449 248.941 42.7061 251.104 46.1992C253.266 49.6924 254.348 53.9688 254.348 59.0254C254.348 59.8906 254.314 60.707 254.249 61.4707C254.182 62.2363 254.082 62.9854 253.949 63.7168H208.633V57.7275H246.862L244.067 61.4209C244.133 60.7568 244.167 60.1074 244.167 59.4746V57.5283C244.167 52.9365 242.853 49.5273 240.225 47.2969C237.595 45.0684 233.62 43.9531 228.297 43.9531C222.373 43.9531 218.148 45.3184 215.62 48.0459C213.09 50.7754 211.827 54.7002 211.827 59.8242V62.4189C211.827 67.6094 213.09 71.5693 215.62 74.2969C218.148 77.0264 222.408 78.3896 228.396 78.3896C233.587 78.3896 237.33 77.5752 239.625 75.9443C241.921 74.3145 243.069 72.0352 243.069 69.1064V68.3086H253.849V69.2061C253.849 72.7344 252.767 75.8438 250.605 78.5391C248.442 81.2344 245.48 83.3301 241.722 84.8271C237.961 86.3252 233.62 87.0732 228.696 87.0732Z" fill="white"/>
<path d="M292.278 86.0732H279.103L255.945 36.4648H267.823L285.491 75.5928H286.289L303.956 36.4648H315.635L292.278 86.0732Z" fill="white"/>
<path d="M351.966 87.0713C344.979 87.0713 338.873 85.6582 333.649 82.8291C328.425 80.002 324.367 76.0088 321.473 70.8516C318.578 65.6953 317.131 59.6221 317.131 52.6357C317.131 45.6484 318.578 39.5771 321.473 34.4189C324.367 29.2627 328.425 25.2705 333.649 22.4414C338.873 19.6133 344.979 18.1992 351.966 18.1992C359.085 18.1992 365.241 19.6133 370.432 22.4414C375.622 25.2705 379.665 29.2627 382.56 34.4189C385.454 39.5771 386.901 45.6484 386.901 52.6357C386.901 59.6221 385.454 65.6953 382.56 70.8516C379.665 76.0088 375.622 80.002 370.432 82.8291C365.241 85.6582 359.085 87.0713 351.966 87.0713ZM351.966 76.6904C357.222 76.6904 361.599 75.8418 365.092 74.1455C368.585 72.4482 371.196 69.8203 372.927 66.2598C374.657 62.7012 375.522 58.1592 375.522 52.6357C375.522 47.0459 374.657 42.4883 372.927 38.9609C371.196 35.4346 368.585 32.8223 365.092 31.125C361.599 29.4287 357.222 28.5801 351.966 28.5801C346.708 28.5801 342.334 29.4287 338.841 31.125C335.347 32.8223 332.751 35.4346 331.055 38.9609C329.358 42.4883 328.51 47.0459 328.51 52.6357C328.51 58.1592 329.358 62.7012 331.055 66.2598C332.751 69.8203 335.347 72.4482 338.841 74.1455C342.334 75.8418 346.708 76.6904 351.966 76.6904Z" fill="white"/>
<path d="M403.669 103.044H392.889V36.4668H402.771V52.0381L403.669 53.3359V103.044ZM424.431 87.0732C418.906 87.0732 414.382 85.71 410.855 82.9805C407.327 80.2529 405.065 76.627 404.067 72.1016H401.772V62.1201H403.669C403.669 65.4482 404.367 68.2578 405.765 70.5537C407.162 72.8496 409.142 74.5469 411.704 75.6445C414.265 76.7422 417.276 77.291 420.737 77.291C424.331 77.291 427.374 76.7764 429.87 75.7441C432.365 74.7139 434.277 73.0342 435.609 70.7041C436.94 68.375 437.606 65.248 437.606 61.3213C437.606 57.3281 436.94 54.1689 435.609 51.8389C434.277 49.5098 432.365 47.8457 429.87 46.8477C427.374 45.8496 424.396 45.3506 420.937 45.3506C415.413 45.3506 411.155 46.665 408.16 49.293C405.166 51.9229 403.669 55.8984 403.669 61.2217H401.772L401.073 50.2412H403.669C404.667 45.6504 406.913 42.041 410.406 39.4121C413.899 36.7842 418.541 35.4688 424.331 35.4688C429.454 35.4688 433.813 36.5518 437.406 38.7129C440.999 40.876 443.728 43.8877 445.591 47.7461C447.453 51.6064 448.386 56.1309 448.386 61.3213C448.386 66.3789 447.47 70.8535 445.641 74.7461C443.81 78.6387 441.114 81.668 437.556 83.8291C433.995 85.9922 429.62 87.0732 424.431 87.0732Z" fill="white"/>
<path d="M477.332 87.0732C469.348 87.0732 463.174 85.543 458.816 82.4814C454.457 79.4219 452.279 75.0303 452.279 69.3066V69.0068H463.059V69.8057C463.059 73.0664 464.14 75.3125 466.303 76.543C468.465 77.7754 472.143 78.3896 477.332 78.3896C482.189 78.3896 485.5 77.875 487.264 76.8428C489.026 75.8115 489.909 74.1973 489.909 72.001C489.909 69.9395 489.227 68.4746 487.863 67.6094C486.498 66.7451 484.02 66.0791 480.427 65.6133L466.852 63.8164C462.127 63.2178 458.434 61.8701 455.772 59.7744C453.11 57.6777 451.779 54.5342 451.779 50.3418C451.779 47.4141 452.645 44.8359 454.375 42.6055C456.104 40.377 458.699 38.6309 462.16 37.3652C465.619 36.1025 469.879 35.4688 474.938 35.4688C479.993 35.4688 484.335 36.1348 487.963 37.4658C491.589 38.7969 494.384 40.7939 496.348 43.4541C498.309 46.1162 499.291 49.4102 499.291 53.3359V53.6357H488.611V53.0361C488.611 51.1074 488.213 49.4775 487.414 48.1455C486.615 46.8154 485.201 45.7998 483.172 45.1016C481.141 44.4023 478.297 44.0527 474.638 44.0527C470.046 44.0527 466.852 44.5869 465.055 45.6504C463.259 46.7158 462.36 48.4121 462.36 50.7412C462.36 52.6719 463.024 54.0693 464.356 54.9326C465.688 55.7988 468.182 56.4971 471.843 57.0293L483.321 58.626C489.176 59.3594 493.502 60.7891 496.297 62.918C499.092 65.0488 500.49 68.1758 500.49 72.3008C500.49 75.3623 499.523 78.0078 497.595 80.2363C495.664 82.4658 492.969 84.1631 489.51 85.3262C486.049 86.4902 481.989 87.0732 477.332 87.0732Z" fill="white"/>
<path d="M116.602 50.3838C116.602 60.6146 114.478 69.4919 110.244 77.0408C106.011 84.5897 100.088 90.4376 92.502 94.5721C84.9036 98.7067 75.8896 100.78 65.4725 100.78C55.2542 100.78 46.3148 98.7067 38.6791 94.5721C33.9237 92.002 29.8264 88.7739 26.3996 84.8753V58.9136H39.002C41.9444 58.9136 44.2912 59.1619 46.079 59.6834C47.8544 60.1924 49.3318 61.0119 50.5361 62.1417C51.7283 63.2592 52.8332 64.749 53.8638 66.5991L64.8271 85.5457H67.608C70.973 85.4464 74.077 85.0864 76.9078 84.4656L66.056 65.7796C64.8272 63.5944 63.4737 61.732 62.0087 60.1924C60.531 58.6529 58.4701 57.5479 55.8008 56.865V56.1448C60.109 55.8717 63.7841 54.9529 66.826 53.3761C69.8554 51.8117 72.1773 49.6513 73.7911 46.9198C75.3928 44.1883 76.2 40.9105 76.2 37.0864C76.2 32.778 75.1943 29.1277 73.1703 26.1231C71.1591 23.1185 68.2537 20.8339 64.467 19.2571C60.8165 17.7548 56.5207 16.9601 51.5792 16.9105C51.3806 16.8981 51.1942 16.8981 50.9956 16.8981H25.543C29.1435 12.5649 33.5263 8.98913 38.6791 6.20798C46.3148 2.06102 55.2542 0 65.4725 0C75.8896 0 84.9036 2.06102 92.502 6.20798C100.088 10.3424 106.011 16.1904 110.244 23.7268C114.478 31.2757 116.602 40.1655 116.602 50.3838Z" fill="white"/>
<path d="M53.436 25.6172H11.2791C5.04983 25.6172 0 30.6671 0 36.8963V38.8937C0 45.123 5.04983 50.1728 11.2791 50.1728H53.436C59.6653 50.1728 64.7151 45.123 64.7151 38.8937V36.8963C64.7151 30.6671 59.6653 25.6172 53.436 25.6172Z" fill="white"/>
</svg>
