<svg width="98" height="101" viewBox="0 0 98 101" fill="none" xmlns="http://www.w3.org/2000/svg">
<path d="M98 50.4937C98 60.7468 95.7148 69.6436 91.1583 77.2089C86.6019 84.7743 80.2279 90.635 72.0634 94.7785C63.8857 98.9221 54.1846 101 42.9734 101C31.9762 101 22.3553 98.9221 14.1375 94.7785C9.01964 92.2028 4.60997 88.9676 0.92193 85.0605V59.0422H14.485C17.6517 59.0422 20.1774 59.291 22.1015 59.8136C24.0122 60.3238 25.6023 61.145 26.8984 62.2773C28.1814 63.3972 29.3706 64.8903 30.4797 66.7444L42.2788 85.7324H45.2717C48.8932 85.6329 52.2338 85.272 55.2804 84.6499L43.6014 65.9231C42.2789 63.7332 40.8222 61.8667 39.2456 60.3238C37.6552 58.7809 35.4371 57.6734 32.5643 56.9891V56.2674C37.2011 55.9936 41.1563 55.0729 44.43 53.4926C47.6904 51.9247 50.1893 49.7597 51.9261 47.0222C53.6499 44.2847 54.5187 40.9998 54.5187 37.1673C54.5187 32.8495 53.4362 29.1913 51.258 26.1801C49.0935 23.1689 45.9665 20.8794 41.8913 19.2992C37.9625 17.7935 33.3392 16.9971 28.0209 16.9474C27.8073 16.9349 27.6066 16.9349 27.3929 16.9349H0C3.87497 12.5923 8.59195 9.00875 14.1375 6.22152C22.3553 2.06552 31.9762 0 42.9734 0C54.1846 0 63.8857 2.06552 72.0634 6.22152C80.2279 10.365 86.6019 16.2257 91.1583 23.7786C95.7148 31.344 98 40.2531 98 50.4937Z" fill="url(#paint0_linear_1_4306)"/>
<defs>
<linearGradient id="paint0_linear_1_4306" x1="-44.02" y1="50.5" x2="102.163" y2="50.5" gradientUnits="userSpaceOnUse">
<stop stop-color="#2CFE05"/>
<stop offset="1"/>
</linearGradient>
</defs>
</svg>
