<svg width="92" height="101" viewBox="0 0 92 101" fill="none" xmlns="http://www.w3.org/2000/svg">
<path d="M91.0586 50.3838C91.0586 60.6146 88.9352 69.4919 84.7015 77.0408C80.4678 84.5897 74.5453 90.4376 66.959 94.5721C59.3607 98.7067 50.3467 100.78 39.9295 100.78C29.7112 100.78 20.7718 98.7067 13.1362 94.5721C8.38077 92.002 4.28344 88.7739 0.856628 84.8753V58.9136H13.459C16.4014 58.9136 18.7482 59.1619 20.536 59.6834C22.3114 60.1924 23.7888 61.0119 24.9931 62.1417C26.1853 63.2592 27.2902 64.749 28.3208 66.5991L39.2842 85.5457H42.065C45.43 85.4464 48.534 85.0864 51.3649 84.4656L40.5131 65.7796C39.2842 63.5944 37.9308 61.732 36.4658 60.1924C34.988 58.6529 32.9271 57.5479 30.2578 56.865V56.1448C34.5661 55.8717 38.2411 54.9529 41.283 53.3761C44.3124 51.8117 46.6343 49.6513 48.2481 46.9198C49.8498 44.1883 50.6571 40.9105 50.6571 37.0864C50.6571 32.778 49.6513 29.1277 47.6273 26.1231C45.6161 23.1185 42.7107 20.8339 38.9241 19.2571C35.2736 17.7548 30.9777 16.9601 26.0362 16.9105C25.8376 16.8981 25.6512 16.8981 25.4527 16.8981H0C3.6005 12.5649 7.98338 8.98913 13.1362 6.20798C20.7718 2.06102 29.7112 0 39.9295 0C50.3467 0 59.3607 2.06102 66.959 6.20798C74.5453 10.3424 80.4678 16.1904 84.7015 23.7268C88.9352 31.2757 91.0586 40.1655 91.0586 50.3838Z" fill="white"/>
</svg>
